#define shade_width 10
#define shade_height 10
static unsigned char shade_bits[] = {
   0xf0, 0x03, 0xf0, 0x03, 0xc0, 0x03, 0xe0, 0x03, 0x70, 0x03, 0x20, 0x03,
   0x00, 0x00, 0x07, 0x00, 0x07, 0x00, 0x07, 0x00 };
