/* XPM */
static char * maximize_active_xpm[] = {
"22 22 12 1",
" 	c None",
".	c #868786",
"+	c #868787",
"@	c #868686",
"#	c #868687",
"$	c #878787",
"%	c #878686",
"&	c #878687",
"*	c #D1D1D1",
"=	c #D9D9D9",
"-	c #808080",
";	c #575858",
"..++@@@####++++$$$%%&&",
"**********************",
"======================",
"======================",
"======================",
"======================",
"======----------======",
"======-;;;;;;;;-======",
"======-;======;-======",
"======-;======;-======",
"======-;======;-======",
"======-;======;-======",
"======-;======;-======",
"======-;======;-======",
"======-;;;;;;;;-======",
"======----------======",
"======================",
"======================",
"======================",
"======================",
"======================",
"======================"};
