/* XPM */
static char * close_prelight_xpm[] = {
"22 22 21 1",
" 	c None",
".	c #868786",
"+	c #868787",
"@	c #868686",
"#	c #868687",
"$	c #878787",
"%	c #878686",
"&	c #878687",
"*	c #D9D9D9",
"=	c #DECCCC",
"-	c #D14545",
";	c #CC0000",
">	c #CF2627",
",	c #CE2726",
"'	c #CE2626",
")	c #DAD9D9",
"!	c #E1D9D9",
"~	c #CF4343",
"{	c #D5BFC0",
"]	c #DED3D3",
"^	c #D6BFBF",
"..++@@@####++++$$$%%&&",
"**********************",
"**********************",
"**********************",
"**********************",
"**********************",
"******=-******-=******",
"******-;>****,;-******",
"*******';'**';'*******",
"********';'';'********",
"*********';;'*********",
"*********';;'*********",
"*******)';'';')*******",
"******!';'))';'!******",
"******~;'!**!';~******",
"******{~]****]~^******",
"**********************",
"**********************",
"**********************",
"**********************",
"**********************",
"**********************"};
