/* XPM */
static char * menu_prelight_xpm[] = {
"22 22 25 1",
" 	c None",
".	c #868786",
"+	c #868787",
"@	c #868686",
"#	c #868687",
"$	c #878787",
"%	c #878686",
"&	c #878687",
"*	c #D1D1D1",
"=	c #D9D9D9",
"-	c #000000",
";	c #5B5A5B",
">	c #262526",
",	c #4D4D4E",
"'	c #4E4E4D",
")	c #252625",
"!	c #5A5B5A",
"~	c #252525",
"{	c #4D4D4D",
"]	c #333333",
"^	c #ACACAC",
"/	c #ACACAB",
"(	c #ABABAB",
"_	c #4C4C4C",
":	c #585858",
"..++@@@####++++$$$%%&&",
"**********************",
"======================",
"======================",
"======================",
"======================",
"==========--==========",
"=======;>,--')!=======",
"=======~------~=======",
"======={-]^^]-{=======",
"======---/==/---======",
"======---(==(---======",
"=======_-]((]-_=======",
"=======~------~=======",
"=======:~_--_~:=======",
"==========--==========",
"======================",
"======================",
"======================",
"======================",
"======================",
"======================"};
