/* XPM */
static char * bottom_active_xpm[] = {
"20 3 3 1",
" 	c None",
".	c #D9D9D9",
"+	c #868687",
"....................",
"....................",
"++++++++++++++++++++"};
