/* XPM */
static char * close_active_xpm[] = {
"22 22 30 1",
" 	c None",
".	c #868786",
"+	c #868787",
"@	c #868686",
"#	c #868687",
"$	c #878787",
"%	c #878686",
"&	c #878687",
"*	c #D1D1D1",
"=	c #D9D9D9",
"-	c #818282",
";	c #828282",
">	c #818181",
",	c #585858",
"'	c #6F6F6F",
")	c #828181",
"!	c #6E6F6F",
"~	c #575858",
"{	c #6F6F6E",
"]	c #6E6E6E",
"^	c #575757",
"/	c #565757",
"(	c #6D6E6E",
"_	c #6E6D6D",
":	c #565657",
"<	c #6D6D6E",
"[	c #6D6D6D",
"}	c #565656",
"|	c #7F7F7F",
"1	c #7E7E7E",
"..++@@@####++++$$$%%&&",
"**********************",
"======================",
"======================",
"======================",
"======================",
"=======-======;=======",
"======>,'====',)======",
"=======!~'=={,'=======",
"========]^]]^]========",
"=========]^^]=========",
"=========]^/(=========",
"========_:<[}[========",
"=======[}[==[}[=======",
"======|}[====[}|======",
"=======1======1=======",
"======================",
"======================",
"======================",
"======================",
"======================",
"======================"};
