/* XPM */
static char * hide_active_xpm[] = {
"22 22 10 1",
" 	c None",
".	c #868786",
"+	c #868787",
"@	c #868686",
"#	c #868687",
"$	c #878787",
"%	c #878686",
"&	c #878687",
"*	c #D9D9D9",
"=	c #565656",
"..++@@@####++++$$$%%&&",
"**********************",
"**********************",
"**********************",
"**********************",
"**********************",
"**********************",
"**********************",
"**********************",
"**********************",
"**********************",
"**********************",
"**********************",
"******==========******",
"******==========******",
"**********************",
"**********************",
"**********************",
"**********************",
"**********************",
"**********************",
"**********************"};
