/* XPM */
static char * left_active_xpm[] = {
"3 20 3 1",
" 	c None",
".	c #868687",
"+	c #D9D9D9",
".++",
".++",
".++",
".++",
".++",
".++",
".++",
".++",
".++",
".++",
".++",
".++",
".++",
".++",
".++",
".++",
".++",
".++",
".++",
".++"};
