/* XPM */
static char * menu_pressed_xpm[] = {
"22 22 24 1",
" 	c None",
".	c #868786",
"+	c #868787",
"@	c #868686",
"#	c #868687",
"$	c #878787",
"%	c #878686",
"&	c #878687",
"*	c #D9D9D9",
"=	c #000000",
"-	c #5A5A5A",
";	c #252525",
">	c #4D4D4D",
",	c #4C4D4C",
"'	c #333333",
")	c #ACACAB",
"!	c #4C4D4D",
"~	c #ABABAB",
"{	c #4C4C4C",
"]	c #323333",
"^	c #AAABAB",
"/	c #585858",
"(	c #4B4B4C",
"_	c #4C4B4B",
"..++@@@####++++$$$%%&&",
"**********************",
"**********************",
"**********************",
"**********************",
"**********************",
"**********************",
"**********==**********",
"*******-;>==>;-*******",
"*******;======;*******",
"*******,='))'=!*******",
"******===~**~===******",
"******===~**~===******",
"*******{=]^^]={*******",
"*******;======;*******",
"*******/;(==_;/*******",
"**********==**********",
"**********************",
"**********************",
"**********************",
"**********************",
"**********************"};
