/* XPM */
static char * menu_inactive_xpm[] = {
"22 22 8 1",
" 	c None",
".	c #999999",
"+	c #D9D9D9",
"@	c #939393",
"#	c #ADADAD",
"$	c #9E9E9E",
"%	c #A9A9A9",
"&	c #A2A2A2",
"......................",
"++++++++++++++++++++++",
"++++++++++++++++++++++",
"++++++++++++++++++++++",
"++++++++++++++++++++++",
"++++++++++++++++++++++",
"++++++++++@@++++++++++",
"+++++++#$%@@%$#+++++++",
"+++++++$@@@@@@$+++++++",
"+++++++%@&++&@%+++++++",
"++++++@@@++++@@@++++++",
"++++++@@@++++@@@++++++",
"+++++++%@&++&@%+++++++",
"+++++++$@@@@@@$+++++++",
"+++++++#$%@@%$#+++++++",
"++++++++++@@++++++++++",
"++++++++++++++++++++++",
"++++++++++++++++++++++",
"++++++++++++++++++++++",
"++++++++++++++++++++++",
"++++++++++++++++++++++",
"++++++++++++++++++++++"};
