/* XPM */
static char * right_inactive_xpm[] = {
"3 20 3 1",
" 	c None",
".	c #D9D9D9",
"+	c #999999",
"..+",
"..+",
"..+",
"..+",
"..+",
"..+",
"..+",
"..+",
"..+",
"..+",
"..+",
"..+",
"..+",
"..+",
"..+",
"..+",
"..+",
"..+",
"..+",
"..+"};
