/* XPM */
static char * shade_pressed_xpm[] = {
"22 22 20 1",
" 	c None",
".	c #868786",
"+	c #868787",
"@	c #868686",
"#	c #868687",
"$	c #878787",
"%	c #878686",
"&	c #878687",
"*	c #D9D9D9",
"=	c #000000",
"-	c #292929",
";	c #D5D5D4",
">	c #262626",
",	c #292A2A",
"'	c #373737",
")	c #272828",
"!	c #DBDCDC",
"~	c #B5B5B6",
"{	c #393939",
"]	c #D4D4D4",
"..++@@@####++++$$$%%&&",
"**********************",
"**********************",
"**********************",
"**********************",
"**********************",
"**********************",
"**********======******",
"**********======******",
"************-===******",
"**********;>=,==******",
"**********'=)!==******",
"**********~{]*==******",
"**********************",
"******===*************",
"******===*************",
"******===*************",
"**********************",
"**********************",
"**********************",
"**********************",
"**********************"};
