/* XPM */
static char * shade_active_xpm[] = {
"22 22 21 1",
" 	c None",
".	c #868786",
"+	c #868787",
"@	c #868686",
"#	c #868687",
"$	c #878787",
"%	c #878686",
"&	c #878687",
"*	c #D9D9D9",
"=	c #585858",
"-	c #717170",
";	c #6E6E6E",
">	c #575757",
",	c #707070",
"'	c #575857",
")	c #797978",
"!	c #6F6F6F",
"~	c #C4C4C4",
"{	c #787979",
"]	c #565757",
"^	c #565656",
"..++@@@####++++$$$%%&&",
"**********************",
"**********************",
"**********************",
"**********************",
"**********************",
"**********======******",
"**********======******",
"************-===******",
"***********;>,>'******",
"**********)>!*>>******",
"**********~{**]>******",
"**********************",
"******^^^*************",
"******^^^*************",
"******^^^*************",
"**********************",
"**********************",
"**********************",
"**********************",
"**********************",
"**********************"};
