/* XPM */
static char * close_pressed_xpm[] = {
"22 22 19 1",
" 	c None",
".	c #868786",
"+	c #868787",
"@	c #868686",
"#	c #868687",
"$	c #878787",
"%	c #878686",
"&	c #878687",
"*	c #D1D1D1",
"=	c #D9D9D9",
"-	c #DEDADA",
";	c #D14545",
">	c #D14445",
",	c #CC0000",
"'	c #CE2626",
")	c #CF4343",
"!	c #CD2525",
"~	c #D4BEBE",
"{	c #D6C2C2",
"..++@@@####++++$$$%%&&",
"**********************",
"======================",
"======================",
"======================",
"======================",
"======================",
"======-;======;-======",
"======>,'====',;======",
"=======','==','=======",
"========','','========",
"=========',,'=========",
"=========',,'=========",
"========','','========",
"=======','==','=======",
"======),!====!,)======",
"======~)======){======",
"======================",
"======================",
"======================",
"======================",
"======================"};
