/* XPM */
static char * menu_active_xpm[] = {
"22 22 35 1",
" 	c None",
".	c #868786",
"+	c #868787",
"@	c #868686",
"#	c #868687",
"$	c #878787",
"%	c #878686",
"&	c #878687",
"*	c #D1D1D1",
"=	c #D9D9D9",
"-	c #585858",
";	c #8F8E8F",
">	c #6E6E6E",
",	c #878786",
"'	c #8E8F8E",
")	c #6D6E6E",
"!	c #575858",
"~	c #585857",
"{	c #858585",
"]	c #575757",
"^	c #767676",
"/	c #BFBFBF",
"(	c #BFBFBE",
"_	c #BEBEBE",
":	c #BDBEBE",
"<	c #565757",
"[	c #858484",
"}	c #575656",
"|	c #757575",
"1	c #BDBDBE",
"2	c #BDBDBD",
"3	c #565656",
"4	c #848484",
"5	c #6C6C6C",
"6	c #8B8B8B",
"..++@@@####++++$$$%%&&",
"**********************",
"======================",
"======================",
"======================",
"======================",
"==========--==========",
"=======;>#--,>'=======",
"=======)!--~~->=======",
"======={]^//^]{=======",
"======]]](==(]]]======",
"======]]]_==:<<]======",
"=======[}|12|34=======",
"=======53333335=======",
"=======65433456=======",
"==========33==========",
"======================",
"======================",
"======================",
"======================",
"======================",
"======================"};
